<?xml version="1.0" encoding="utf-8"?>
<!-- Generator: Adobe Illustrator 26.3.1, SVG Export Plug-In . SVG Version: 6.00 Build 0)  -->
<svg version="1.1" id="Layer_1" xmlns="http://www.w3.org/2000/svg" xmlns:xlink="http://www.w3.org/1999/xlink" x="0px" y="0px"
	 viewBox="0 0 605.5 180" style="enable-background:new 0 0 605.5 180;" xml:space="preserve">
<style type="text/css">
	.st0{fill:#00EDC4;}
	.st1{fill:#FF744A;}
	.st2{fill:#FFFFFF;}
	.st3{fill:#FFAB94;}
</style>
<polygon class="st0" points="47.2,66.8 47.2,66.8 47.2,66.8 "/>
<path class="st1" d="M34.5,24.3c-4.4,2.5-5.9,8.1-3.4,12.5l16.7,29l0,0c0,0,0,0,0,0l-0.1,0c0.1,0.1,0.1,0.3,0.1,0.4l0,0
	c0,0.1,0,0.2-0.1,0.3l0,0c-0.1,0.1-0.2,0.2-0.3,0.3l0,0c-0.1,0.1-0.3,0.1-0.4,0.1l0,0.1l0,0l0,0l-33.4,0c-5,0-9.1,4.1-9.2,9.1
	c0,5,4.1,9.1,9.1,9.2c0,0,0,0,0.1,0v0l33.4,0l0.9,0c3.7,0,7.4-1.1,10.4-3.2l0,0c0,0,0.1-0.1,0.1-0.1c0,0,0.1,0,0.1-0.1l0,0
	c1.5-1.1,2.8-2.4,4-3.8l0,0c0,0,0.1-0.1,0.1-0.1c0,0,0.1-0.1,0.1-0.1l0,0c2.4-3.2,3.6-7.1,3.6-11h0c0-3.2-0.9-6.4-2.5-9.2l-0.5-0.8
	L47,27.6l0,0C44.5,23.3,38.9,21.8,34.5,24.3C34.5,24.3,34.5,24.3,34.5,24.3z"/>
<polygon class="st0" points="47.8,65.8 47.8,65.8 47.8,65.8 "/>
<polygon class="st0" points="47.8,112.4 47.8,112.4 47.8,112.4 "/>
<path class="st1" d="M4.6,102.1c0,5,4.1,9.1,9.1,9.1l33.4,0l0,0c0,0,0,0,0,0l0,0.1c0.1,0,0.3,0,0.4,0.1l0,0c0.1,0.1,0.2,0.1,0.2,0.2
	l0,0c0.1,0.1,0.1,0.2,0.1,0.4l0,0c0,0.1,0,0.3-0.1,0.4l0.1,0l0,0l0,0l-16.7,29c-2.5,4.4-1,10,3.4,12.5c4.4,2.5,10,1,12.5-3.4l0,0
	l16.7-29l0.5-0.8c1.9-3.2,2.7-6.9,2.4-10.7l0,0c0-0.1,0-0.1,0-0.2c0,0,0-0.1,0-0.1l0-0.1c-0.2-1.8-0.6-3.6-1.3-5.4l0,0
	c0,0,0-0.1-0.1-0.1c0,0,0-0.1-0.1-0.1l0,0c-1.6-3.6-4.3-6.7-7.7-8.7l0,0c-2.8-1.6-6-2.5-9.2-2.5l-0.9,0l-33.4,0v0
	C8.7,92.9,4.6,97,4.6,102.1z"/>
<polygon class="st0" points="47.2,111.3 47.2,111.3 47.2,111.3 "/>
<path class="st2" d="M194.7,42.3h15.2l24.7,71.1l25.1-71.1h15.1l-32.8,88.6h-14.6L194.7,42.3z"/>
<path class="st2" d="M266.2,99c0-19.1,13.7-32.9,32.9-32.9c19.1,0,32.9,13.8,32.9,32.9s-13.8,32.9-32.9,32.9
	C279.8,131.9,266.2,118.1,266.2,99z M318.1,99c0-12.3-7.7-20.9-19-20.9c-11.4,0-19,8.6-19,20.9c0,12.3,7.6,20.9,19,20.9
	C310.3,119.9,318.1,111.3,318.1,99L318.1,99z"/>
<path class="st2" d="M340.8,41.3h13.8v89.6h-13.8V41.3z"/>
<path class="st2" d="M366.2,67.1H380v8.1c3.5-5.2,11-9.1,19.9-9.1c18.9,0,30,13.7,30,32.9c0,19.2-11.6,32.9-30.8,32.9
	c-7.7,0-15.2-3.3-19.1-8.4V154h-13.8V67.1z M416.1,99c0-12.7-7.3-20.9-18.5-20.9c-11.1,0-18.5,8.2-18.5,20.9
	c0,12.5,7.3,20.9,18.5,20.9C408.7,119.9,416.1,111.6,416.1,99z"/>
<path class="st2" d="M492.4,91.2v39.8h-13.5v-9.7c-3.7,6.5-11.5,10.8-20,10.8c-12.7,0-21.4-8-21.4-18.9c0-12.5,9.7-19.2,29.4-21.3
	l12-1.3v-0.9c0-7.8-5.4-12.7-13.8-12.7c-7.7,0-13.2,4.6-14.1,12.2l-12.4-2.3c2-12.5,12.9-20.8,26.5-20.8
	C481.2,66.1,492.4,75.2,492.4,91.2z M478.8,103.5v-2.7l-12.2,1.4c-10.4,1.1-15.7,4.9-15.7,10.5c0,5.1,4.2,8.6,10.6,8.6
	C472.4,121.3,478.7,113.8,478.8,103.5z"/>
<path class="st2" d="M534.1,79c-9.4,0-17.6,8.4-17.6,28.1v23.8h-13.8V67.1h13.8v12.2c3.4-7.6,11.8-13.2,19.5-13.2
	c2.4,0,4.8,0.4,7.1,1.1l-0.8,13.3C539.8,79.5,537,79,534.1,79z"/>
<path class="st2" d="M600.9,91.2v39.8h-13.5v-9.7c-3.7,6.5-11.5,10.8-20,10.8c-12.7,0-21.4-8-21.4-18.9c0-12.5,9.7-19.2,29.4-21.3
	l12-1.3v-0.9c0-7.8-5.4-12.7-13.8-12.7c-7.7,0-13.2,4.6-14.1,12.2l-12.4-2.3c2-12.5,12.9-20.8,26.5-20.8
	C589.8,66.1,600.9,75.2,600.9,91.2z M587.4,103.5v-2.7l-12.2,1.4c-10.4,1.1-15.7,4.9-15.7,10.5c0,5.1,4.2,8.6,10.6,8.6
	C580.9,121.3,587.3,113.8,587.4,103.5z"/>
<polygon class="st0" points="86.3,43.5 86.3,43.5 86.3,43.5 "/>
<path class="st3" d="M116.8,11.3c-4.4-2.5-10-1-12.5,3.3L87.6,43.6l0,0c0,0,0,0,0,0l0-0.1c-0.1,0.1-0.2,0.2-0.3,0.3h0
	c-0.1,0.1-0.2,0.1-0.3,0.1c0,0,0,0,0,0c-0.1,0-0.2,0-0.4-0.1h0c-0.1-0.1-0.2-0.2-0.3-0.3l0,0.1l0,0l0,0L69.5,14.6
	C67,10.3,61.4,8.8,57,11.3s-5.9,8.1-3.3,12.5l0,0l16.7,28.9l0.5,0.8c1.9,3.2,4.7,5.8,8,7.4l0,0c0,0,0.1,0,0.1,0.1c0,0,0.1,0,0.1,0.1
	l0.1,0c1.7,0.8,3.5,1.3,5.3,1.5l0,0c0,0,0.1,0,0.1,0c0,0,0.1,0,0.1,0h0c3.9,0.5,7.9-0.4,11.4-2.4l0,0c2.8-1.6,5.1-4,6.8-6.8l0.5-0.8
	l16.7-28.9l0,0C122.7,19.4,121.2,13.8,116.8,11.3C116.8,11.3,116.8,11.3,116.8,11.3z"/>
<polygon class="st0" points="87.5,43.5 87.5,43.5 87.5,43.5 "/>
<polygon class="st1" points="87.5,134.6 87.5,134.6 87.5,134.6 "/>
<path class="st1" d="M57,166.8c4.4,2.5,10,1,12.5-3.3l16.7-28.9l0,0c0,0,0,0,0,0l0,0.1c0.1-0.1,0.2-0.2,0.3-0.3h0
	c0.1-0.1,0.2-0.1,0.3-0.1c0,0,0,0,0,0c0.1,0,0.2,0,0.4,0.1h0c0.1,0.1,0.2,0.2,0.3,0.3l0-0.1l0,0l0,0l16.7,28.9
	c2.5,4.4,8.1,5.9,12.5,3.3c4.4-2.5,5.9-8.1,3.3-12.5c0,0,0,0,0,0l0,0l-16.7-28.9l-0.5-0.8c-1.9-3.2-4.7-5.8-8-7.4l0,0
	c0,0-0.1,0-0.1-0.1c0,0-0.1,0-0.1-0.1l-0.1,0c-1.7-0.8-3.5-1.3-5.3-1.5l0,0c0,0-0.1,0-0.1,0c0,0-0.1,0-0.1,0h0
	c-3.9-0.5-7.9,0.4-11.4,2.4l0,0c-2.8,1.6-5.1,4-6.8,6.8l-0.5,0.8l-16.7,28.9l0,0C51.1,158.7,52.6,164.3,57,166.8
	C57,166.8,57,166.8,57,166.8z"/>
<polygon class="st1" points="86.3,134.6 86.3,134.6 86.3,134.6 "/>
<polygon class="st1" points="126.6,111.3 126.6,111.3 126.6,111.3 "/>
<path class="st1" d="M139.3,153.9c4.4-2.5,5.9-8.1,3.4-12.5l-16.7-29l0,0c0,0,0,0,0,0l0.1,0c-0.1-0.1-0.1-0.3-0.1-0.4l0,0
	c0-0.1,0-0.2,0.1-0.3l0,0c0.1-0.1,0.2-0.2,0.3-0.3l0,0c0.1-0.1,0.3-0.1,0.4-0.1l0-0.1l0,0l0,0l33.4,0c5,0,9.1-4.1,9.2-9.1
	c0-5-4.1-9.1-9.1-9.2c0,0,0,0-0.1,0v0l-33.4,0l-0.9,0c-3.7,0-7.4,1.1-10.4,3.2l0,0c0,0-0.1,0.1-0.1,0.1c0,0-0.1,0-0.1,0.1l0,0
	c-1.5,1.1-2.8,2.4-4,3.8l0,0c0,0-0.1,0.1-0.1,0.1c0,0-0.1,0.1-0.1,0.1l0,0c-2.4,3.2-3.6,7.1-3.6,11h0c0,3.2,0.9,6.4,2.5,9.2l0.5,0.8
	l16.7,29l0,0C129.3,154.9,134.9,156.4,139.3,153.9z"/>
<polygon class="st1" points="126,112.4 126,112.4 126,112.4 "/>
<polygon class="st1" points="126,65.8 126,65.8 126,65.8 "/>
<path class="st1" d="M169.2,76.1c0-5-4.1-9.1-9.1-9.1l-33.4,0l0,0c0,0,0,0,0,0l0-0.1c-0.1,0-0.3,0-0.4-0.1l0,0
	c-0.1-0.1-0.2-0.1-0.2-0.2l0,0c-0.1-0.1-0.1-0.2-0.1-0.4l0,0c0-0.1,0-0.3,0.1-0.4l-0.1,0l0,0l0,0l16.7-29c2.5-4.4,1-10-3.4-12.5
	c-4.4-2.5-10-1-12.5,3.4l0,0l-16.7,29l-0.5,0.8c-1.9,3.2-2.7,6.9-2.4,10.7l0,0c0,0.1,0,0.1,0,0.2c0,0,0,0.1,0,0.1l0,0.1
	c0.2,1.8,0.6,3.6,1.3,5.4l0,0c0,0,0,0.1,0.1,0.1c0,0,0,0.1,0.1,0.1l0,0c1.6,3.6,4.3,6.7,7.7,8.7l0,0c2.8,1.6,6,2.5,9.2,2.5l0.9,0
	l33.4,0v0C165.1,85.2,169.2,81.1,169.2,76.1z"/>
<polygon class="st1" points="126.6,66.9 126.6,66.9 126.6,66.9 "/>
<path class="st2" d="M473.6,163.9l3.5-1.1c0.2,2.3,2.1,4,4.4,4.1c2.1,0,3.5-1,3.5-2.5c0-4.4-10.7-1.9-10.7-9.2c0-3.2,3-5.5,7-5.5
	c3.8,0,6.9,2,7.5,5.1l-3.5,1.4c-0.3-1.9-2-3.3-4-3.2c-1.9,0-3.1,0.8-3.1,2.2c0,3.7,10.8,1,10.8,9.1c0,3.6-3.1,6-7.6,6
	C477.6,170.3,474.3,167.6,473.6,163.9z"/>
<path class="st2" d="M492.4,159.9c0-6.8,4.8-10.3,10-10.3c4.8,0,8.3,2.6,9,6.7l-3.9,0.8c-0.4-2.5-2.6-4.2-5.1-4.1
	c-3.4,0-6,2.4-6,6.9s2.6,6.9,6,6.9c2.4,0.2,4.5-1.5,5-3.8l3.9,0.9c-1,3.9-4.3,6.3-8.9,6.3C497,170.2,492.4,166.7,492.4,159.9z"/>
<path class="st2" d="M515.3,170v-20.2h3.9V170H515.3z"/>
<path class="st2" d="M524.4,170v-20.2h13.5v3.4h-9.6v4.4h7.7v3.4h-7.7v5.6h9.9v3.4L524.4,170z"/>
<path class="st2" d="M542.6,170v-20.2h4l8.6,14v-14h3.7V170h-4l-8.6-14v14H542.6z"/>
<path class="st2" d="M563.2,159.9c0-6.8,4.8-10.3,10-10.3c4.8,0,8.3,2.6,9,6.7l-3.9,0.8c-0.4-2.5-2.6-4.2-5.1-4.1
	c-3.4,0-6,2.4-6,6.9s2.6,6.9,6,6.9c2.4,0.2,4.5-1.5,5-3.8l3.9,0.9c-1,3.9-4.3,6.3-8.9,6.3C567.9,170.2,563.2,166.7,563.2,159.9z"/>
<path class="st2" d="M586.1,170v-20.2h13.5v3.4H590v4.4h7.7v3.4H590v5.6h9.9v3.4L586.1,170z"/>
</svg>
